<?xml version="1.0" standalone="no"?>
<!DOCTYPE svg PUBLIC "-//W3C//DTD SVG 20010904//EN"
 "http://www.w3.org/TR/2001/REC-SVG-20010904/DTD/svg10.dtd">
<svg version="1.0" xmlns="http://www.w3.org/2000/svg"
 width="465.000000pt" height="465.000000pt" viewBox="0 0 465.000000 465.000000"
 preserveAspectRatio="xMidYMid meet">
<metadata>
Created by potrace 1.14, written by Peter Selinger 2001-2017
</metadata>
<g transform="translate(0.000000,465.000000) scale(0.100000,-0.100000)"
fill="#000000" stroke="none">
<path d="M3770 4366 c-5 -14 -25 -78 -46 -143 -20 -65 -76 -242 -124 -393 -49
-151 -86 -278 -84 -282 3 -5 113 -8 245 -8 224 0 240 -1 235 -17 -2 -10 -34
-146 -71 -303 -88 -380 -157 -670 -206 -869 -22 -90 -38 -165 -37 -167 5 -4
139 250 343 646 163 317 289 556 457 868 54 101 98 185 98 188 0 2 -103 4
-230 4 -126 0 -230 3 -230 8 0 4 36 114 80 246 44 131 80 240 80 242 0 2 -113
4 -250 4 l-250 0 -10 -24z"/>
<path d="M1602 4298 c-92 -166 -124 -309 -104 -471 25 -203 142 -437 301 -602
28 -29 51 -55 51 -58 0 -10 -108 31 -170 64 -32 17 -77 47 -100 66 -78 67
-170 229 -221 390 l-23 73 -18 -58 c-67 -210 -81 -382 -38 -480 30 -70 106
-137 218 -195 94 -49 286 -127 311 -127 17 0 73 17 116 35 17 7 68 25 115 40
47 15 90 31 95 35 6 4 39 13 74 21 35 7 65 19 68 26 3 6 10 10 17 7 7 -3 20 4
30 14 16 19 14 23 -62 113 -112 134 -252 314 -299 384 -102 150 -236 463 -287
668 l-33 130 -41 -75z"/>
<path d="M164 3595 c-5 -33 -9 -112 -9 -175 1 -190 56 -321 190 -455 111 -110
392 -292 620 -401 l110 -52 -39 -7 c-148 -28 -418 64 -683 233 l-23 14 16 -54
c34 -116 122 -245 222 -324 75 -59 254 -146 367 -179 234 -66 494 -102 669
-92 l111 7 -49 -35 c-112 -79 -261 -106 -479 -87 -157 14 -251 33 -370 73 -49
17 -93 29 -99 27 -5 -2 11 -29 37 -61 195 -239 563 -361 1044 -344 184 6 303
24 424 64 90 30 206 101 255 157 37 42 37 43 17 -36 -49 -187 -182 -326 -396
-413 -191 -77 -386 -95 -1054 -95 l-475 0 4 -22 c3 -13 13 -61 22 -108 22
-117 81 -262 103 -255 9 3 120 38 246 79 127 40 248 81 269 90 22 9 41 14 44
11 3 -2 -7 -23 -22 -45 -72 -109 -167 -184 -333 -262 -59 -27 -110 -52 -112
-54 -15 -13 166 -229 230 -275 l29 -21 53 44 c142 117 339 288 400 347 63 62
67 64 67 39 0 -15 -11 -62 -25 -105 -32 -103 -115 -223 -234 -339 -57 -57 -91
-97 -86 -104 10 -16 83 -46 157 -66 l61 -15 85 57 c135 92 347 316 458 484
l25 37 147 6 c223 10 351 34 507 95 246 95 433 265 545 496 85 176 90 208 100
621 10 416 12 439 39 501 49 111 129 174 253 201 l78 16 -25 27 c-15 15 -51
45 -80 66 -34 25 -64 57 -81 88 -38 70 -90 123 -148 154 -45 23 -62 26 -146
26 -74 0 -108 -5 -151 -22 -130 -52 -222 -147 -310 -324 -64 -130 -99 -179
-168 -237 l-59 -48 75 -74 c130 -129 209 -285 234 -461 13 -99 -4 -228 -43
-306 l-23 -47 -7 110 c-10 168 -61 308 -162 442 -117 155 -239 232 -572 362
-1049 408 -1508 673 -1805 1041 l-37 45 -8 -60z m3114 -629 c35 -35 34 -91 -2
-122 -38 -33 -80 -31 -117 5 -33 33 -38 74 -13 109 33 47 89 50 132 8z"/>
<path d="M2848 283 c7 -3 16 -2 19 1 4 3 -2 6 -13 5 -11 0 -14 -3 -6 -6z"/>
</g>
</svg>
